<svg width="38" height="32" viewBox="0 0 38 32" fill="none" xmlns="http://www.w3.org/2000/svg">
<path d="M37.9812 7.40542C37.8103 11.0033 35.2275 15.9296 30.233 22.2028C25.0676 28.7712 20.6997 32 17.0915 32C14.9076 32 13.0275 30.0073 11.4893 26.0036C10.4448 22.3873 9.4953 18.7341 8.43182 15.0808C7.29239 11.0955 6.07699 9.10287 4.74765 9.10287C4.48178 9.10287 3.49427 9.69329 1.78512 10.8557L0 8.60471C1.89906 6.99951 3.72216 5.39431 5.54525 3.78911C8.05201 1.68575 9.93208 0.578719 11.1665 0.468016C14.129 0.172807 15.9521 2.16547 16.6358 6.37219C17.3764 10.9295 17.8891 13.7524 18.174 14.8594C18.9906 18.6234 19.9401 20.4684 20.9846 20.4684C21.7822 20.4684 22.9786 19.2876 24.5738 16.8336C26.169 14.3982 27.0236 12.5347 27.1376 11.2431C27.3654 9.13977 26.5109 8.08809 24.5738 8.08809C23.6623 8.08809 22.7317 8.29105 21.7632 8.69696C23.6243 2.73743 27.1945 -0.159303 32.4549 0.00675223C36.367 0.117456 38.2091 2.58983 37.9812 7.40542Z" fill="black"/>
</svg>
